<?xml version="1.0" encoding="UTF-8" standalone="no" ?>
<!DOCTYPE svg PUBLIC "-//W3C//DTD SVG 1.1//EN" "http://www.w3.org/Graphics/SVG/1.1/DTD/svg11.dtd">
<svg xmlns="http://www.w3.org/2000/svg" xmlns:xlink="http://www.w3.org/1999/xlink" version="1.1" width="500" height="500" viewBox="0 0 500 500" xml:space="preserve">
<desc>Created with Fabric.js 5.3.0</desc>
<defs>
</defs>
<g transform="matrix(5.7699995107 0 0 5.7699995107 251.6031195841 248.3968804159)" id="be1krseBv81DYeIMv8j4u"  >
<path style="stroke: rgb(154,61,102); stroke-width: 0; stroke-dasharray: none; stroke-linecap: butt; stroke-dashoffset: 0; stroke-linejoin: miter; stroke-miterlimit: 4; fill: rgb(255,255,255); fill-rule: nonzero; opacity: 1;" vector-effect="non-scaling-stroke"  transform=" translate(0, 0)" d="M -43.32756 -24.94523 C -43.32756 -35.09751 -35.09751 -43.32756 -24.94523 -43.32756 L 24.94523 -43.32756 L 24.94523 -43.32756 C 35.09751 -43.32756 43.32756 -35.09751 43.32756 -24.94523 L 43.32756 24.94523 L 43.32756 24.94523 C 43.32756 35.09751 35.09751 43.32756 24.94523 43.32756 L -24.94523 43.32756 L -24.94523 43.32756 C -35.09751 43.32756 -43.32756 35.09751 -43.32756 24.94523 z" stroke-linecap="round" />
</g>
<g transform="matrix(19.607730154 0 0 13.6663004862 251.8176114376 249.5673135868)" id="vNxUQ1v7x2obPegnPnUHY"  >
<linearGradient id="SVGID_1311_0_0" gradientUnits="userSpaceOnUse" gradientTransform="matrix(1 0 0 1 0 0)"  x1="0" y1="15.353005000000001" x2="8.93542" y2="15.353005000000001">
<stop offset="0%" style="stop-color:#0099FF;stop-opacity: 1"/>
<stop offset="49.999999999999936%" style="stop-color:#00548C;stop-opacity: 1"/>
<stop offset="100%" style="stop-color:#007ED1;stop-opacity: 1"/>
</linearGradient>
<path style="stroke: rgb(0,64,106); stroke-width: 1; stroke-dasharray: none; stroke-linecap: butt; stroke-dashoffset: 0; stroke-linejoin: miter; stroke-miterlimit: 4; fill: url(#SVGID_1311_0_0); fill-rule: nonzero; opacity: 1;" vector-effect="non-scaling-stroke"  transform=" translate(-4.46771, -15.353005)" d="M 5.79374 0 L 2.4819199999999997 7.84476 L 8.93542 23.31648 L 5.793740000000001 30.70601 L 3.7102000000000004 30.70601 L 6.72278 24.029069999999997 L 0 7.844759999999997 L 3.7102 -2.6645352591003757e-15 z" stroke-linecap="round" />
</g>
<g transform="matrix(17.9104408936 0 0 12.9114042242 116.563092852 125.3195109567)" id="-CFOKfWwJPLSn6jomM8Mi"  >
<linearGradient id="SVGID_1007_1_1" gradientUnits="userSpaceOnUse" gradientTransform="matrix(1 0 0 1 0 0)"  x1="0" y1="6.62755" x2="8.73732" y2="6.62755">
<stop offset="0%" style="stop-color:#0099FF;stop-opacity: 1"/>
<stop offset="50%" style="stop-color:#0065A9;stop-opacity: 1"/>
<stop offset="100%" style="stop-color:#00375B;stop-opacity: 1"/>
</linearGradient>
<path style="stroke: rgb(0,64,106); stroke-width: 1; stroke-dasharray: none; stroke-linecap: butt; stroke-dashoffset: 0; stroke-linejoin: miter; stroke-miterlimit: 4; fill: url(#SVGID_1007_1_1); fill-rule: nonzero; opacity: 1;" vector-effect="non-scaling-stroke"  transform=" translate(-4.36866, -6.62755)" d="M 6.45615 0 L 0 13.2551 L 2.15205 13.2551 L 5.12188 7.2003 L 6.45615 7.973890000000001 L 7.18785 6.545730000000001 L 5.93966 5.653130000000001 L 8.73732 8.881784197001252e-16 z" stroke-linecap="round" />
</g>
<g transform="matrix(16.3311786841 0 0 12.0172494115 386.7176026862 379.7411719462)" id="AhDmY4UQrx32Z_BUY_ZQq"  >
<linearGradient id="SVGID_1130_2_2" gradientUnits="userSpaceOnUse" gradientTransform="matrix(1 0 0 1 0 0)"  x1="0" y1="6.62755" x2="8.91163" y2="6.62755">
<stop offset="0%" style="stop-color:#0098FF;stop-opacity: 1"/>
<stop offset="50%" style="stop-color:#0067AC;stop-opacity: 1"/>
<stop offset="100%" style="stop-color:#023E67;stop-opacity: 1"/>
</linearGradient>
<path style="stroke: rgb(0,64,106); stroke-width: 1; stroke-dasharray: none; stroke-linecap: butt; stroke-dashoffset: 0; stroke-linejoin: miter; stroke-miterlimit: 4; fill: url(#SVGID_1130_2_2); fill-rule: nonzero; opacity: 1;" vector-effect="non-scaling-stroke"  transform=" translate(-4.455815, -6.62755)" d="M 2.32668 13.2551 L 8.91163 0 L 6.7166500000000005 0 L 3.6875700000000005 6.0548 L 2.3266800000000005 5.28121 L 1.5803900000000004 6.70937 L 2.8534800000000002 7.60197 L 4.440892098500626e-16 13.255099999999999 z" stroke-linecap="round" />
</g>
</svg>